<mxfile host="app.diagrams.net" modified="2023-09-06T18:51:38.684Z" agent="Mozilla/5.0 (Windows NT 10.0; Win64; x64) AppleWebKit/537.36 (KHTML, like Gecko) Chrome/116.0.0.0 Safari/537.36" etag="gQGe4ixw7Xh2SQNrt7vT" version="21.7.2" type="github">
  <diagram name="Página-1" id="d42B4NjkREHznUSKamvR">
    <mxGraphModel dx="7336" dy="5432" grid="0" gridSize="7" guides="1" tooltips="1" connect="1" arrows="1" fold="1" page="1" pageScale="1" pageWidth="1600" pageHeight="1200" background="#9AC7BF" math="0" shadow="1">
      <root>
        <mxCell id="0" />
        <mxCell id="1" parent="0" />
        <mxCell id="GmjXvpa_BvCfjPu0cRvT-71" value="" style="whiteSpace=wrap;html=1;aspect=fixed;movable=1;resizable=1;rotatable=1;deletable=1;editable=1;locked=0;connectable=1;fontFamily=Times New Roman;rounded=1;" vertex="1" parent="1">
          <mxGeometry x="153.25" y="-507" width="1244" height="1244" as="geometry" />
        </mxCell>
        <mxCell id="GmjXvpa_BvCfjPu0cRvT-69" value="" style="whiteSpace=wrap;html=1;aspect=fixed;direction=west;flipV=1;container=1;movable=1;resizable=1;rotatable=1;deletable=1;editable=1;locked=0;connectable=1;fillColor=#d5e8d4;strokeColor=#82b366;rounded=1;" vertex="1" parent="1">
          <mxGeometry x="1456" y="-1786" width="1246" height="1246" as="geometry" />
        </mxCell>
        <mxCell id="GmjXvpa_BvCfjPu0cRvT-68" value="" style="whiteSpace=wrap;html=1;aspect=fixed;movable=1;resizable=1;rotatable=1;deletable=1;editable=1;locked=0;connectable=1;fillColor=#f8cecc;strokeColor=#b85450;rounded=1;" vertex="1" parent="1">
          <mxGeometry x="138" y="-1790" width="1244" height="1244" as="geometry" />
        </mxCell>
        <mxCell id="GmjXvpa_BvCfjPu0cRvT-64" value="" style="whiteSpace=wrap;html=1;aspect=fixed;fillColor=#dae8fc;strokeColor=#6c8ebf;movable=1;resizable=1;rotatable=1;deletable=1;editable=1;locked=0;connectable=1;rounded=1;" vertex="1" parent="1">
          <mxGeometry x="-1172" y="-1790" width="1240" height="1240" as="geometry" />
        </mxCell>
        <mxCell id="GmjXvpa_BvCfjPu0cRvT-5" style="edgeStyle=orthogonalEdgeStyle;rounded=1;orthogonalLoop=1;jettySize=auto;html=1;shadow=0;fillColor=#f8cecc;strokeColor=#b85450;" edge="1" parent="1" target="ISLiyG6Lf3ItFJRZVSb7-67">
          <mxGeometry relative="1" as="geometry">
            <mxPoint x="841.959090909091" y="-1013" as="targetPoint" />
            <mxPoint x="1139.5" y="-830" as="sourcePoint" />
            <Array as="points">
              <mxPoint x="865.959090909091" y="-1021" />
              <mxPoint x="1157.959090909091" y="-1021" />
              <mxPoint x="1157.959090909091" y="-1112" />
            </Array>
          </mxGeometry>
        </mxCell>
        <mxCell id="GmjXvpa_BvCfjPu0cRvT-117" style="edgeStyle=orthogonalEdgeStyle;orthogonalLoop=1;jettySize=auto;html=1;strokeColor=default;shadow=1;sketch=1;curveFitting=1;jiggle=2;jumpStyle=none;endSize=11;startSize=10;rounded=1;" edge="1" parent="1" source="ISLiyG6Lf3ItFJRZVSb7-55" target="GmjXvpa_BvCfjPu0cRvT-80">
          <mxGeometry relative="1" as="geometry" />
        </mxCell>
        <mxCell id="ISLiyG6Lf3ItFJRZVSb7-55" value="" style="shape=mxgraph.cisco.controllers_and_modules.service_module;html=1;pointerEvents=1;dashed=0;fillColor=#f8cecc;strokeColor=#b85450;strokeWidth=2;verticalLabelPosition=bottom;verticalAlign=top;align=center;outlineConnect=0;rounded=1;gradientDirection=east;aspect=fixed;fillStyle=auto;gradientColor=#66FF66;" parent="1" vertex="1">
          <mxGeometry x="661.41" y="314" width="207.08" height="268" as="geometry" />
        </mxCell>
        <mxCell id="GmjXvpa_BvCfjPu0cRvT-67" value="Text" style="text;html=1;align=center;verticalAlign=middle;resizable=0;points=[];autosize=1;strokeColor=none;fillColor=none;rounded=1;" vertex="1" parent="1">
          <mxGeometry x="-600" y="28" width="40" height="26" as="geometry" />
        </mxCell>
        <mxCell id="GmjXvpa_BvCfjPu0cRvT-73" value="&lt;h1 style=&quot;line-height: 190%;&quot;&gt;&lt;font style=&quot;font-size: 113px;&quot; face=&quot;Times New Roman&quot;&gt;1ºAndar&lt;/font&gt;&lt;/h1&gt;&lt;h1 style=&quot;line-height: 190%;&quot;&gt;&lt;font style=&quot;font-size: 113px;&quot; face=&quot;Times New Roman&quot;&gt;Servidor&lt;/font&gt;&lt;/h1&gt;" style="whiteSpace=wrap;html=1;strokeColor=#3A5431;fontFamily=Helvetica;fontSize=12;fontColor=#ffffff;fillColor=#6d8764;align=center;rounded=1;dashed=1;dashPattern=1 1;" vertex="1" parent="1">
          <mxGeometry x="445.5" y="-462" width="659.5" height="264" as="geometry" />
        </mxCell>
        <mxCell id="GmjXvpa_BvCfjPu0cRvT-77" value="&lt;h1 style=&quot;line-height: 190%;&quot;&gt;&lt;span style=&quot;font-size: 113px; font-family: &amp;quot;Times New Roman&amp;quot;; background-color: initial; font-weight: normal;&quot;&gt;Laboratorio&lt;/span&gt;&lt;br&gt;&lt;/h1&gt;" style="whiteSpace=wrap;html=1;strokeColor=#3A5431;fontFamily=Helvetica;fontSize=12;fontColor=#ffffff;fillColor=#6d8764;align=center;rounded=1;" vertex="1" parent="1">
          <mxGeometry x="-872" y="-1775" width="575.5" height="204" as="geometry" />
        </mxCell>
        <mxCell id="GmjXvpa_BvCfjPu0cRvT-78" value="&lt;h1 style=&quot;line-height: 190%;&quot;&gt;&lt;span style=&quot;font-size: 113px; font-family: &amp;quot;Times New Roman&amp;quot;; background-color: initial; font-weight: normal;&quot;&gt;Secretaria&lt;/span&gt;&lt;br&gt;&lt;/h1&gt;" style="whiteSpace=wrap;html=1;strokeColor=#3A5431;fontFamily=Helvetica;fontSize=12;fontColor=#ffffff;fillColor=#6d8764;align=center;rounded=1;" vertex="1" parent="1">
          <mxGeometry x="445.5" y="-1778" width="575.5" height="204" as="geometry" />
        </mxCell>
        <mxCell id="GmjXvpa_BvCfjPu0cRvT-79" value="&lt;h1 style=&quot;line-height: 190%;&quot;&gt;&lt;span style=&quot;font-size: 113px; font-family: &amp;quot;Times New Roman&amp;quot;; background-color: initial; font-weight: normal;&quot;&gt;Contabilidade&lt;/span&gt;&lt;br&gt;&lt;/h1&gt;" style="whiteSpace=wrap;html=1;strokeColor=#3A5431;fontFamily=Helvetica;fontSize=12;fontColor=#ffffff;fillColor=#6d8764;align=center;rounded=1;" vertex="1" parent="1">
          <mxGeometry x="1775" y="-1768" width="692.5" height="197" as="geometry" />
        </mxCell>
        <mxCell id="GmjXvpa_BvCfjPu0cRvT-118" style="edgeStyle=orthogonalEdgeStyle;shape=connector;rounded=1;sketch=1;jiggle=2;curveFitting=1;jumpStyle=none;orthogonalLoop=1;jettySize=auto;html=1;shadow=1;labelBackgroundColor=default;strokeColor=default;fontFamily=Helvetica;fontSize=11;fontColor=default;endArrow=classic;startSize=10;endSize=11;" edge="1" parent="1" source="GmjXvpa_BvCfjPu0cRvT-80" target="GmjXvpa_BvCfjPu0cRvT-168">
          <mxGeometry relative="1" as="geometry">
            <mxPoint x="1149.6000000000004" y="-1113.9999999999995" as="targetPoint" />
            <Array as="points">
              <mxPoint x="765" y="-145" />
              <mxPoint x="1343" y="-145" />
              <mxPoint x="1343" y="-1114" />
            </Array>
          </mxGeometry>
        </mxCell>
        <mxCell id="GmjXvpa_BvCfjPu0cRvT-124" style="edgeStyle=orthogonalEdgeStyle;shape=connector;rounded=1;sketch=1;jiggle=2;curveFitting=1;jumpStyle=none;orthogonalLoop=1;jettySize=auto;html=1;shadow=1;labelBackgroundColor=default;strokeColor=default;fontFamily=Helvetica;fontSize=11;fontColor=default;endArrow=classic;startSize=10;endSize=11;" edge="1" parent="1" source="GmjXvpa_BvCfjPu0cRvT-80" target="GmjXvpa_BvCfjPu0cRvT-114">
          <mxGeometry relative="1" as="geometry">
            <mxPoint x="86.66666666666697" y="26" as="targetPoint" />
            <Array as="points">
              <mxPoint x="116" y="26" />
              <mxPoint x="116" y="-1137" />
            </Array>
          </mxGeometry>
        </mxCell>
        <mxCell id="GmjXvpa_BvCfjPu0cRvT-180" style="edgeStyle=orthogonalEdgeStyle;shape=connector;rounded=1;sketch=1;jiggle=2;curveFitting=1;jumpStyle=none;orthogonalLoop=1;jettySize=auto;html=1;shadow=1;labelBackgroundColor=default;strokeColor=default;fontFamily=Helvetica;fontSize=11;fontColor=default;endArrow=classic;startSize=10;endSize=11;" edge="1" parent="1" source="GmjXvpa_BvCfjPu0cRvT-80" target="GmjXvpa_BvCfjPu0cRvT-101">
          <mxGeometry relative="1" as="geometry">
            <Array as="points">
              <mxPoint x="1423" y="26" />
              <mxPoint x="1423" y="-1120" />
            </Array>
          </mxGeometry>
        </mxCell>
        <mxCell id="GmjXvpa_BvCfjPu0cRvT-80" value="" style="shape=mxgraph.cisco.switches.workgroup_switch;html=1;pointerEvents=1;dashed=0;fillColor=#036897;strokeColor=#ffffff;strokeWidth=2;verticalLabelPosition=bottom;verticalAlign=top;align=center;outlineConnect=0;fontColor=#EEEEEE;rounded=1;aspect=fixed;" vertex="1" parent="1">
          <mxGeometry x="684.15" y="-14" width="161.6" height="80" as="geometry" />
        </mxCell>
        <mxCell id="GmjXvpa_BvCfjPu0cRvT-89" value="" style="shape=mxgraph.cisco.computers_and_peripherals.pc;html=1;pointerEvents=1;dashed=0;fillColor=#09555B;strokeColor=#BAC8D3;strokeWidth=2;verticalLabelPosition=bottom;verticalAlign=top;align=center;outlineConnect=0;labelBackgroundColor=none;fontColor=#EEEEEE;rounded=1;aspect=fixed;" vertex="1" parent="1">
          <mxGeometry x="2259" y="-1545" width="159.34" height="143" as="geometry" />
        </mxCell>
        <mxCell id="GmjXvpa_BvCfjPu0cRvT-90" value="" style="shape=mxgraph.cisco.computers_and_peripherals.upc;html=1;pointerEvents=1;dashed=0;fillColor=#036897;strokeColor=#ffffff;strokeWidth=2;verticalLabelPosition=bottom;verticalAlign=top;align=center;outlineConnect=0;fontColor=#EEEEEE;rounded=1;aspect=fixed;" vertex="1" parent="1">
          <mxGeometry x="1793" y="-853" width="175.65" height="166" as="geometry" />
        </mxCell>
        <mxCell id="GmjXvpa_BvCfjPu0cRvT-91" value="" style="shape=mxgraph.cisco.routers.wireless_router;html=1;pointerEvents=1;dashed=0;fillColor=#036897;strokeColor=#ffffff;strokeWidth=2;verticalLabelPosition=bottom;verticalAlign=top;align=center;outlineConnect=0;fontColor=#EEEEEE;rounded=1;aspect=fixed;" vertex="1" parent="1">
          <mxGeometry x="2435.5" y="-1210" width="128.65" height="127" as="geometry" />
        </mxCell>
        <mxCell id="GmjXvpa_BvCfjPu0cRvT-92" value="" style="shape=mxgraph.cisco.computers_and_peripherals.upc;html=1;pointerEvents=1;dashed=0;fillColor=#036897;strokeColor=#ffffff;strokeWidth=2;verticalLabelPosition=bottom;verticalAlign=top;align=center;outlineConnect=0;fontColor=#EEEEEE;rounded=1;aspect=fixed;" vertex="1" parent="1">
          <mxGeometry x="2008" y="-848" width="175.65" height="166" as="geometry" />
        </mxCell>
        <mxCell id="GmjXvpa_BvCfjPu0cRvT-93" value="" style="shape=mxgraph.cisco.computers_and_peripherals.upc;html=1;pointerEvents=1;dashed=0;fillColor=#036897;strokeColor=#ffffff;strokeWidth=2;verticalLabelPosition=bottom;verticalAlign=top;align=center;outlineConnect=0;fontColor=#EEEEEE;rounded=1;aspect=fixed;" vertex="1" parent="1">
          <mxGeometry x="2204" y="-853" width="175.65" height="166" as="geometry" />
        </mxCell>
        <mxCell id="GmjXvpa_BvCfjPu0cRvT-94" value="" style="shape=mxgraph.cisco.computers_and_peripherals.upc;html=1;pointerEvents=1;dashed=0;fillColor=#036897;strokeColor=#ffffff;strokeWidth=2;verticalLabelPosition=bottom;verticalAlign=top;align=center;outlineConnect=0;fontColor=#EEEEEE;rounded=1;aspect=fixed;" vertex="1" parent="1">
          <mxGeometry x="2412" y="-845" width="175.65" height="166" as="geometry" />
        </mxCell>
        <mxCell id="GmjXvpa_BvCfjPu0cRvT-95" value="" style="shape=mxgraph.cisco.computers_and_peripherals.upc;html=1;pointerEvents=1;dashed=0;fillColor=#036897;strokeColor=#ffffff;strokeWidth=2;verticalLabelPosition=bottom;verticalAlign=top;align=center;outlineConnect=0;fontColor=#EEEEEE;rounded=1;aspect=fixed;" vertex="1" parent="1">
          <mxGeometry x="1571" y="-842" width="175.65" height="166" as="geometry" />
        </mxCell>
        <mxCell id="GmjXvpa_BvCfjPu0cRvT-170" value="" style="edgeStyle=orthogonalEdgeStyle;shape=connector;rounded=1;sketch=1;jiggle=2;curveFitting=1;jumpStyle=none;orthogonalLoop=1;jettySize=auto;html=1;shadow=1;labelBackgroundColor=default;strokeColor=default;fontFamily=Helvetica;fontSize=11;fontColor=default;endArrow=classic;startSize=10;endSize=11;" edge="1" parent="1" source="GmjXvpa_BvCfjPu0cRvT-96" target="GmjXvpa_BvCfjPu0cRvT-79">
          <mxGeometry relative="1" as="geometry" />
        </mxCell>
        <mxCell id="GmjXvpa_BvCfjPu0cRvT-96" value="" style="shape=mxgraph.cisco.computers_and_peripherals.pc;html=1;pointerEvents=1;dashed=0;fillColor=#09555B;strokeColor=#BAC8D3;strokeWidth=2;verticalLabelPosition=bottom;verticalAlign=top;align=center;outlineConnect=0;labelBackgroundColor=none;fontColor=#EEEEEE;rounded=1;aspect=fixed;" vertex="1" parent="1">
          <mxGeometry x="2016.15" y="-1540" width="159.34" height="143" as="geometry" />
        </mxCell>
        <mxCell id="GmjXvpa_BvCfjPu0cRvT-97" value="" style="shape=mxgraph.cisco.computers_and_peripherals.pc;html=1;pointerEvents=1;dashed=0;fillColor=#09555B;strokeColor=#BAC8D3;strokeWidth=2;verticalLabelPosition=bottom;verticalAlign=top;align=center;outlineConnect=0;labelBackgroundColor=none;fontColor=#EEEEEE;rounded=1;aspect=fixed;" vertex="1" parent="1">
          <mxGeometry x="1793" y="-1533" width="159.34" height="143" as="geometry" />
        </mxCell>
        <mxCell id="GmjXvpa_BvCfjPu0cRvT-98" value="" style="shape=mxgraph.cisco.computers_and_peripherals.pc;html=1;pointerEvents=1;dashed=0;fillColor=#09555B;strokeColor=#BAC8D3;strokeWidth=2;verticalLabelPosition=bottom;verticalAlign=top;align=center;outlineConnect=0;labelBackgroundColor=none;fontColor=#EEEEEE;rounded=1;aspect=fixed;" vertex="1" parent="1">
          <mxGeometry x="1574" y="-1535" width="159.34" height="143" as="geometry" />
        </mxCell>
        <mxCell id="GmjXvpa_BvCfjPu0cRvT-99" value="" style="shape=mxgraph.cisco.computers_and_peripherals.pc;html=1;pointerEvents=1;dashed=0;fillColor=#09555B;strokeColor=#BAC8D3;strokeWidth=2;verticalLabelPosition=bottom;verticalAlign=top;align=center;outlineConnect=0;labelBackgroundColor=none;fontColor=#EEEEEE;rounded=1;aspect=fixed;" vertex="1" parent="1">
          <mxGeometry x="2460" y="-1545" width="159.34" height="143" as="geometry" />
        </mxCell>
        <mxCell id="GmjXvpa_BvCfjPu0cRvT-174" style="edgeStyle=orthogonalEdgeStyle;shape=connector;rounded=1;sketch=1;jiggle=2;curveFitting=1;jumpStyle=none;orthogonalLoop=1;jettySize=auto;html=1;shadow=1;labelBackgroundColor=default;strokeColor=default;fontFamily=Helvetica;fontSize=11;fontColor=default;endArrow=classic;startSize=10;endSize=11;" edge="1" parent="1" source="GmjXvpa_BvCfjPu0cRvT-101" target="GmjXvpa_BvCfjPu0cRvT-98">
          <mxGeometry relative="1" as="geometry">
            <Array as="points">
              <mxPoint x="1718" y="-1222" />
              <mxPoint x="1654" y="-1222" />
            </Array>
          </mxGeometry>
        </mxCell>
        <mxCell id="GmjXvpa_BvCfjPu0cRvT-175" style="edgeStyle=orthogonalEdgeStyle;shape=connector;rounded=1;sketch=1;jiggle=2;curveFitting=1;jumpStyle=none;orthogonalLoop=1;jettySize=auto;html=1;entryX=0.501;entryY=0.719;entryDx=0;entryDy=0;entryPerimeter=0;shadow=1;labelBackgroundColor=default;strokeColor=default;fontFamily=Helvetica;fontSize=11;fontColor=default;endArrow=classic;startSize=10;endSize=11;" edge="1" parent="1" source="GmjXvpa_BvCfjPu0cRvT-101" target="GmjXvpa_BvCfjPu0cRvT-91">
          <mxGeometry relative="1" as="geometry" />
        </mxCell>
        <mxCell id="GmjXvpa_BvCfjPu0cRvT-176" style="edgeStyle=orthogonalEdgeStyle;shape=connector;rounded=1;sketch=1;jiggle=2;curveFitting=1;jumpStyle=none;orthogonalLoop=1;jettySize=auto;html=1;shadow=1;labelBackgroundColor=default;strokeColor=default;fontFamily=Helvetica;fontSize=11;fontColor=default;endArrow=classic;startSize=10;endSize=11;" edge="1" parent="1" source="GmjXvpa_BvCfjPu0cRvT-101" target="GmjXvpa_BvCfjPu0cRvT-97">
          <mxGeometry relative="1" as="geometry">
            <Array as="points">
              <mxPoint x="1718" y="-1205" />
              <mxPoint x="1873" y="-1205" />
            </Array>
          </mxGeometry>
        </mxCell>
        <mxCell id="GmjXvpa_BvCfjPu0cRvT-177" style="edgeStyle=orthogonalEdgeStyle;shape=connector;rounded=1;sketch=1;jiggle=2;curveFitting=1;jumpStyle=none;orthogonalLoop=1;jettySize=auto;html=1;shadow=1;labelBackgroundColor=default;strokeColor=default;fontFamily=Helvetica;fontSize=11;fontColor=default;endArrow=classic;startSize=10;endSize=11;" edge="1" parent="1" source="GmjXvpa_BvCfjPu0cRvT-101" target="GmjXvpa_BvCfjPu0cRvT-96">
          <mxGeometry relative="1" as="geometry">
            <Array as="points">
              <mxPoint x="1718" y="-1212" />
              <mxPoint x="2096" y="-1212" />
            </Array>
          </mxGeometry>
        </mxCell>
        <mxCell id="GmjXvpa_BvCfjPu0cRvT-178" style="edgeStyle=orthogonalEdgeStyle;shape=connector;rounded=1;sketch=1;jiggle=2;curveFitting=1;jumpStyle=none;orthogonalLoop=1;jettySize=auto;html=1;shadow=1;labelBackgroundColor=default;strokeColor=default;fontFamily=Helvetica;fontSize=11;fontColor=default;endArrow=classic;startSize=10;endSize=11;" edge="1" parent="1" source="GmjXvpa_BvCfjPu0cRvT-101" target="GmjXvpa_BvCfjPu0cRvT-89">
          <mxGeometry relative="1" as="geometry">
            <Array as="points">
              <mxPoint x="1718" y="-1202" />
              <mxPoint x="2339" y="-1202" />
            </Array>
          </mxGeometry>
        </mxCell>
        <mxCell id="GmjXvpa_BvCfjPu0cRvT-179" style="edgeStyle=orthogonalEdgeStyle;shape=connector;rounded=1;sketch=1;jiggle=2;curveFitting=1;jumpStyle=none;orthogonalLoop=1;jettySize=auto;html=1;entryX=0.5;entryY=1;entryDx=0;entryDy=0;entryPerimeter=0;shadow=1;labelBackgroundColor=default;strokeColor=default;fontFamily=Helvetica;fontSize=11;fontColor=default;endArrow=classic;startSize=10;endSize=11;" edge="1" parent="1" source="GmjXvpa_BvCfjPu0cRvT-101" target="GmjXvpa_BvCfjPu0cRvT-99">
          <mxGeometry relative="1" as="geometry">
            <Array as="points">
              <mxPoint x="1718" y="-1209" />
              <mxPoint x="2540" y="-1209" />
            </Array>
          </mxGeometry>
        </mxCell>
        <mxCell id="GmjXvpa_BvCfjPu0cRvT-101" value="" style="shape=mxgraph.cisco.switches.workgroup_switch;html=1;pointerEvents=1;dashed=0;fillColor=#036897;strokeColor=#ffffff;strokeWidth=2;verticalLabelPosition=bottom;verticalAlign=top;align=center;outlineConnect=0;fontColor=#EEEEEE;rounded=1;aspect=fixed;" vertex="1" parent="1">
          <mxGeometry x="1637" y="-1160" width="161.6" height="80" as="geometry" />
        </mxCell>
        <mxCell id="GmjXvpa_BvCfjPu0cRvT-103" value="" style="shape=mxgraph.cisco.computers_and_peripherals.pc;html=1;pointerEvents=1;dashed=0;fillColor=#09555B;strokeColor=#BAC8D3;strokeWidth=2;verticalLabelPosition=bottom;verticalAlign=top;align=center;outlineConnect=0;labelBackgroundColor=none;fontColor=#EEEEEE;rounded=1;aspect=fixed;" vertex="1" parent="1">
          <mxGeometry x="-388.1700000000001" y="-1535" width="159.34" height="143" as="geometry" />
        </mxCell>
        <mxCell id="GmjXvpa_BvCfjPu0cRvT-104" value="" style="shape=mxgraph.cisco.computers_and_peripherals.upc;html=1;pointerEvents=1;dashed=0;fillColor=#036897;strokeColor=#ffffff;strokeWidth=2;verticalLabelPosition=bottom;verticalAlign=top;align=center;outlineConnect=0;fontColor=#EEEEEE;rounded=1;aspect=fixed;" vertex="1" parent="1">
          <mxGeometry x="-854.1700000000001" y="-843" width="175.65" height="166" as="geometry" />
        </mxCell>
        <mxCell id="GmjXvpa_BvCfjPu0cRvT-105" value="" style="shape=mxgraph.cisco.routers.wireless_router;html=1;pointerEvents=1;dashed=0;fillColor=#036897;strokeColor=#ffffff;strokeWidth=2;verticalLabelPosition=bottom;verticalAlign=top;align=center;outlineConnect=0;fontColor=#EEEEEE;rounded=1;aspect=fixed;" vertex="1" parent="1">
          <mxGeometry x="-794.0000000000001" y="-1200.5" width="128.65" height="127" as="geometry" />
        </mxCell>
        <mxCell id="GmjXvpa_BvCfjPu0cRvT-106" value="" style="shape=mxgraph.cisco.computers_and_peripherals.upc;html=1;pointerEvents=1;dashed=0;fillColor=#036897;strokeColor=#ffffff;strokeWidth=2;verticalLabelPosition=bottom;verticalAlign=top;align=center;outlineConnect=0;fontColor=#EEEEEE;rounded=1;aspect=fixed;" vertex="1" parent="1">
          <mxGeometry x="-639.1700000000001" y="-838" width="175.65" height="166" as="geometry" />
        </mxCell>
        <mxCell id="GmjXvpa_BvCfjPu0cRvT-107" value="" style="shape=mxgraph.cisco.computers_and_peripherals.upc;html=1;pointerEvents=1;dashed=0;fillColor=#036897;strokeColor=#ffffff;strokeWidth=2;verticalLabelPosition=bottom;verticalAlign=top;align=center;outlineConnect=0;fontColor=#EEEEEE;rounded=1;aspect=fixed;" vertex="1" parent="1">
          <mxGeometry x="-443.1700000000001" y="-843" width="175.65" height="166" as="geometry" />
        </mxCell>
        <mxCell id="GmjXvpa_BvCfjPu0cRvT-108" value="" style="shape=mxgraph.cisco.computers_and_peripherals.upc;html=1;pointerEvents=1;dashed=0;fillColor=#036897;strokeColor=#ffffff;strokeWidth=2;verticalLabelPosition=bottom;verticalAlign=top;align=center;outlineConnect=0;fontColor=#EEEEEE;rounded=1;aspect=fixed;" vertex="1" parent="1">
          <mxGeometry x="-235.17000000000007" y="-835" width="175.65" height="166" as="geometry" />
        </mxCell>
        <mxCell id="GmjXvpa_BvCfjPu0cRvT-109" value="" style="shape=mxgraph.cisco.computers_and_peripherals.upc;html=1;pointerEvents=1;dashed=0;fillColor=#036897;strokeColor=#ffffff;strokeWidth=2;verticalLabelPosition=bottom;verticalAlign=top;align=center;outlineConnect=0;fontColor=#EEEEEE;rounded=1;aspect=fixed;" vertex="1" parent="1">
          <mxGeometry x="-1076.17" y="-832" width="175.65" height="166" as="geometry" />
        </mxCell>
        <mxCell id="GmjXvpa_BvCfjPu0cRvT-110" value="" style="shape=mxgraph.cisco.computers_and_peripherals.pc;html=1;pointerEvents=1;dashed=0;fillColor=#09555B;strokeColor=#BAC8D3;strokeWidth=2;verticalLabelPosition=bottom;verticalAlign=top;align=center;outlineConnect=0;labelBackgroundColor=none;fontColor=#EEEEEE;rounded=1;aspect=fixed;" vertex="1" parent="1">
          <mxGeometry x="-631.0200000000001" y="-1530" width="159.34" height="143" as="geometry" />
        </mxCell>
        <mxCell id="GmjXvpa_BvCfjPu0cRvT-111" value="" style="shape=mxgraph.cisco.computers_and_peripherals.pc;html=1;pointerEvents=1;dashed=0;fillColor=#09555B;strokeColor=#BAC8D3;strokeWidth=2;verticalLabelPosition=bottom;verticalAlign=top;align=center;outlineConnect=0;labelBackgroundColor=none;fontColor=#EEEEEE;rounded=1;aspect=fixed;" vertex="1" parent="1">
          <mxGeometry x="-854.1700000000001" y="-1523" width="159.34" height="143" as="geometry" />
        </mxCell>
        <mxCell id="GmjXvpa_BvCfjPu0cRvT-112" value="" style="shape=mxgraph.cisco.computers_and_peripherals.pc;html=1;pointerEvents=1;dashed=0;fillColor=#09555B;strokeColor=#BAC8D3;strokeWidth=2;verticalLabelPosition=bottom;verticalAlign=top;align=center;outlineConnect=0;labelBackgroundColor=none;fontColor=#EEEEEE;rounded=1;aspect=fixed;" vertex="1" parent="1">
          <mxGeometry x="-1073.17" y="-1525" width="159.34" height="143" as="geometry" />
        </mxCell>
        <mxCell id="GmjXvpa_BvCfjPu0cRvT-131" style="edgeStyle=orthogonalEdgeStyle;shape=connector;rounded=1;sketch=1;jiggle=2;curveFitting=1;jumpStyle=none;orthogonalLoop=1;jettySize=auto;html=1;shadow=1;labelBackgroundColor=default;strokeColor=default;fontFamily=Helvetica;fontSize=11;fontColor=default;endArrow=classic;startSize=10;endSize=11;" edge="1" parent="1" source="GmjXvpa_BvCfjPu0cRvT-113" target="GmjXvpa_BvCfjPu0cRvT-114">
          <mxGeometry relative="1" as="geometry">
            <Array as="points">
              <mxPoint x="-157" y="-1225" />
              <mxPoint x="-271" y="-1225" />
            </Array>
          </mxGeometry>
        </mxCell>
        <mxCell id="GmjXvpa_BvCfjPu0cRvT-113" value="" style="shape=mxgraph.cisco.computers_and_peripherals.pc;html=1;pointerEvents=1;dashed=0;fillColor=#09555B;strokeColor=#BAC8D3;strokeWidth=2;verticalLabelPosition=bottom;verticalAlign=top;align=center;outlineConnect=0;labelBackgroundColor=none;fontColor=#EEEEEE;rounded=1;aspect=fixed;" vertex="1" parent="1">
          <mxGeometry x="-187.17000000000007" y="-1535" width="159.34" height="143" as="geometry" />
        </mxCell>
        <mxCell id="GmjXvpa_BvCfjPu0cRvT-125" style="edgeStyle=orthogonalEdgeStyle;shape=connector;rounded=1;sketch=1;jiggle=2;curveFitting=1;jumpStyle=none;orthogonalLoop=1;jettySize=auto;html=1;shadow=1;labelBackgroundColor=default;strokeColor=default;fontFamily=Helvetica;fontSize=11;fontColor=default;endArrow=classic;startSize=10;endSize=11;" edge="1" parent="1" source="GmjXvpa_BvCfjPu0cRvT-114" target="GmjXvpa_BvCfjPu0cRvT-105">
          <mxGeometry relative="1" as="geometry" />
        </mxCell>
        <mxCell id="GmjXvpa_BvCfjPu0cRvT-127" style="edgeStyle=orthogonalEdgeStyle;shape=connector;rounded=1;sketch=1;jiggle=2;curveFitting=1;jumpStyle=none;orthogonalLoop=1;jettySize=auto;html=1;shadow=1;labelBackgroundColor=default;strokeColor=default;fontFamily=Helvetica;fontSize=11;fontColor=default;endArrow=classic;startSize=10;endSize=11;" edge="1" parent="1" source="GmjXvpa_BvCfjPu0cRvT-114" target="GmjXvpa_BvCfjPu0cRvT-103">
          <mxGeometry relative="1" as="geometry" />
        </mxCell>
        <mxCell id="GmjXvpa_BvCfjPu0cRvT-128" style="edgeStyle=orthogonalEdgeStyle;shape=connector;rounded=1;sketch=1;jiggle=2;curveFitting=1;jumpStyle=none;orthogonalLoop=1;jettySize=auto;html=1;exitX=0.5;exitY=0;exitDx=0;exitDy=0;exitPerimeter=0;shadow=1;labelBackgroundColor=default;strokeColor=default;fontFamily=Helvetica;fontSize=11;fontColor=default;endArrow=classic;startSize=10;endSize=11;" edge="1" parent="1" source="GmjXvpa_BvCfjPu0cRvT-114" target="GmjXvpa_BvCfjPu0cRvT-110">
          <mxGeometry relative="1" as="geometry">
            <Array as="points">
              <mxPoint x="-271" y="-1222" />
              <mxPoint x="-551" y="-1222" />
            </Array>
          </mxGeometry>
        </mxCell>
        <mxCell id="GmjXvpa_BvCfjPu0cRvT-130" style="edgeStyle=orthogonalEdgeStyle;shape=connector;rounded=1;sketch=1;jiggle=2;curveFitting=1;jumpStyle=none;orthogonalLoop=1;jettySize=auto;html=1;shadow=1;labelBackgroundColor=default;strokeColor=default;fontFamily=Helvetica;fontSize=11;fontColor=default;endArrow=classic;startSize=10;endSize=11;" edge="1" parent="1" source="GmjXvpa_BvCfjPu0cRvT-114" target="GmjXvpa_BvCfjPu0cRvT-111">
          <mxGeometry relative="1" as="geometry">
            <Array as="points">
              <mxPoint x="-271" y="-1219" />
              <mxPoint x="-775" y="-1219" />
            </Array>
          </mxGeometry>
        </mxCell>
        <mxCell id="GmjXvpa_BvCfjPu0cRvT-132" style="edgeStyle=orthogonalEdgeStyle;shape=connector;rounded=1;sketch=1;jiggle=2;curveFitting=1;jumpStyle=none;orthogonalLoop=1;jettySize=auto;html=1;shadow=1;labelBackgroundColor=default;strokeColor=default;fontFamily=Helvetica;fontSize=11;fontColor=default;endArrow=classic;startSize=10;endSize=11;" edge="1" parent="1" source="GmjXvpa_BvCfjPu0cRvT-114">
          <mxGeometry relative="1" as="geometry">
            <mxPoint x="-339.50000000000006" y="-1224" as="sourcePoint" />
            <mxPoint x="-980.9966666666661" y="-1469" as="targetPoint" />
            <Array as="points">
              <mxPoint x="-271" y="-1219" />
              <mxPoint x="-980" y="-1219" />
            </Array>
          </mxGeometry>
        </mxCell>
        <mxCell id="GmjXvpa_BvCfjPu0cRvT-114" value="" style="shape=mxgraph.cisco.switches.workgroup_switch;html=1;pointerEvents=1;dashed=0;fillColor=#036897;strokeColor=#ffffff;strokeWidth=2;verticalLabelPosition=bottom;verticalAlign=top;align=center;outlineConnect=0;fontColor=#EEEEEE;rounded=1;aspect=fixed;" vertex="1" parent="1">
          <mxGeometry x="-352.1700000000001" y="-1177" width="161.6" height="80" as="geometry" />
        </mxCell>
        <mxCell id="GmjXvpa_BvCfjPu0cRvT-151" value="" style="shape=mxgraph.cisco.computers_and_peripherals.pc;html=1;pointerEvents=1;dashed=0;fillColor=#09555B;strokeColor=#BAC8D3;strokeWidth=2;verticalLabelPosition=bottom;verticalAlign=top;align=center;outlineConnect=0;labelBackgroundColor=none;fontColor=#EEEEEE;rounded=1;aspect=fixed;" vertex="1" parent="1">
          <mxGeometry x="933" y="-1508" width="159.34" height="143" as="geometry" />
        </mxCell>
        <mxCell id="GmjXvpa_BvCfjPu0cRvT-152" value="" style="shape=mxgraph.cisco.computers_and_peripherals.upc;html=1;pointerEvents=1;dashed=0;fillColor=#036897;strokeColor=#ffffff;strokeWidth=2;verticalLabelPosition=bottom;verticalAlign=top;align=center;outlineConnect=0;fontColor=#EEEEEE;rounded=1;aspect=fixed;" vertex="1" parent="1">
          <mxGeometry x="467" y="-816" width="175.65" height="166" as="geometry" />
        </mxCell>
        <mxCell id="GmjXvpa_BvCfjPu0cRvT-153" value="" style="shape=mxgraph.cisco.routers.wireless_router;html=1;pointerEvents=1;dashed=0;fillColor=#036897;strokeColor=#ffffff;strokeWidth=2;verticalLabelPosition=bottom;verticalAlign=top;align=center;outlineConnect=0;fontColor=#EEEEEE;rounded=1;aspect=fixed;" vertex="1" parent="1">
          <mxGeometry x="527.17" y="-1173.5" width="128.65" height="127" as="geometry" />
        </mxCell>
        <mxCell id="GmjXvpa_BvCfjPu0cRvT-154" value="" style="shape=mxgraph.cisco.computers_and_peripherals.upc;html=1;pointerEvents=1;dashed=0;fillColor=#036897;strokeColor=#ffffff;strokeWidth=2;verticalLabelPosition=bottom;verticalAlign=top;align=center;outlineConnect=0;fontColor=#EEEEEE;rounded=1;aspect=fixed;" vertex="1" parent="1">
          <mxGeometry x="682" y="-811" width="175.65" height="166" as="geometry" />
        </mxCell>
        <mxCell id="GmjXvpa_BvCfjPu0cRvT-155" value="" style="shape=mxgraph.cisco.computers_and_peripherals.upc;html=1;pointerEvents=1;dashed=0;fillColor=#036897;strokeColor=#ffffff;strokeWidth=2;verticalLabelPosition=bottom;verticalAlign=top;align=center;outlineConnect=0;fontColor=#EEEEEE;rounded=1;aspect=fixed;" vertex="1" parent="1">
          <mxGeometry x="878" y="-816" width="175.65" height="166" as="geometry" />
        </mxCell>
        <mxCell id="GmjXvpa_BvCfjPu0cRvT-156" value="" style="shape=mxgraph.cisco.computers_and_peripherals.upc;html=1;pointerEvents=1;dashed=0;fillColor=#036897;strokeColor=#ffffff;strokeWidth=2;verticalLabelPosition=bottom;verticalAlign=top;align=center;outlineConnect=0;fontColor=#EEEEEE;rounded=1;aspect=fixed;" vertex="1" parent="1">
          <mxGeometry x="1086" y="-808" width="175.65" height="166" as="geometry" />
        </mxCell>
        <mxCell id="GmjXvpa_BvCfjPu0cRvT-157" value="" style="shape=mxgraph.cisco.computers_and_peripherals.upc;html=1;pointerEvents=1;dashed=0;fillColor=#036897;strokeColor=#ffffff;strokeWidth=2;verticalLabelPosition=bottom;verticalAlign=top;align=center;outlineConnect=0;fontColor=#EEEEEE;rounded=1;aspect=fixed;" vertex="1" parent="1">
          <mxGeometry x="245" y="-805" width="175.65" height="166" as="geometry" />
        </mxCell>
        <mxCell id="GmjXvpa_BvCfjPu0cRvT-158" value="" style="shape=mxgraph.cisco.computers_and_peripherals.pc;html=1;pointerEvents=1;dashed=0;fillColor=#09555B;strokeColor=#BAC8D3;strokeWidth=2;verticalLabelPosition=bottom;verticalAlign=top;align=center;outlineConnect=0;labelBackgroundColor=none;fontColor=#EEEEEE;rounded=1;aspect=fixed;" vertex="1" parent="1">
          <mxGeometry x="690.15" y="-1503" width="159.34" height="143" as="geometry" />
        </mxCell>
        <mxCell id="GmjXvpa_BvCfjPu0cRvT-159" value="" style="shape=mxgraph.cisco.computers_and_peripherals.pc;html=1;pointerEvents=1;dashed=0;fillColor=#09555B;strokeColor=#BAC8D3;strokeWidth=2;verticalLabelPosition=bottom;verticalAlign=top;align=center;outlineConnect=0;labelBackgroundColor=none;fontColor=#EEEEEE;rounded=1;aspect=fixed;" vertex="1" parent="1">
          <mxGeometry x="467" y="-1496" width="159.34" height="143" as="geometry" />
        </mxCell>
        <mxCell id="GmjXvpa_BvCfjPu0cRvT-160" value="" style="shape=mxgraph.cisco.computers_and_peripherals.pc;html=1;pointerEvents=1;dashed=0;fillColor=#09555B;strokeColor=#BAC8D3;strokeWidth=2;verticalLabelPosition=bottom;verticalAlign=top;align=center;outlineConnect=0;labelBackgroundColor=none;fontColor=#EEEEEE;rounded=1;aspect=fixed;" vertex="1" parent="1">
          <mxGeometry x="248" y="-1498" width="159.34" height="143" as="geometry" />
        </mxCell>
        <mxCell id="GmjXvpa_BvCfjPu0cRvT-161" style="edgeStyle=orthogonalEdgeStyle;shape=connector;rounded=1;sketch=1;jiggle=2;curveFitting=1;jumpStyle=none;orthogonalLoop=1;jettySize=auto;html=1;shadow=1;labelBackgroundColor=default;strokeColor=default;fontFamily=Helvetica;fontSize=11;fontColor=default;endArrow=classic;startSize=10;endSize=11;" edge="1" parent="1" source="GmjXvpa_BvCfjPu0cRvT-162" target="GmjXvpa_BvCfjPu0cRvT-168">
          <mxGeometry relative="1" as="geometry">
            <Array as="points">
              <mxPoint x="1164.17" y="-1198" />
              <mxPoint x="1050.17" y="-1198" />
            </Array>
          </mxGeometry>
        </mxCell>
        <mxCell id="GmjXvpa_BvCfjPu0cRvT-162" value="" style="shape=mxgraph.cisco.computers_and_peripherals.pc;html=1;pointerEvents=1;dashed=0;fillColor=#09555B;strokeColor=#BAC8D3;strokeWidth=2;verticalLabelPosition=bottom;verticalAlign=top;align=center;outlineConnect=0;labelBackgroundColor=none;fontColor=#EEEEEE;rounded=1;aspect=fixed;" vertex="1" parent="1">
          <mxGeometry x="1134" y="-1508" width="159.34" height="143" as="geometry" />
        </mxCell>
        <mxCell id="GmjXvpa_BvCfjPu0cRvT-163" style="edgeStyle=orthogonalEdgeStyle;shape=connector;rounded=1;sketch=1;jiggle=2;curveFitting=1;jumpStyle=none;orthogonalLoop=1;jettySize=auto;html=1;shadow=1;labelBackgroundColor=default;strokeColor=default;fontFamily=Helvetica;fontSize=11;fontColor=default;endArrow=classic;startSize=10;endSize=11;" edge="1" parent="1" source="GmjXvpa_BvCfjPu0cRvT-168" target="GmjXvpa_BvCfjPu0cRvT-153">
          <mxGeometry relative="1" as="geometry" />
        </mxCell>
        <mxCell id="GmjXvpa_BvCfjPu0cRvT-164" style="edgeStyle=orthogonalEdgeStyle;shape=connector;rounded=1;sketch=1;jiggle=2;curveFitting=1;jumpStyle=none;orthogonalLoop=1;jettySize=auto;html=1;shadow=1;labelBackgroundColor=default;strokeColor=default;fontFamily=Helvetica;fontSize=11;fontColor=default;endArrow=classic;startSize=10;endSize=11;" edge="1" parent="1" source="GmjXvpa_BvCfjPu0cRvT-168" target="GmjXvpa_BvCfjPu0cRvT-151">
          <mxGeometry relative="1" as="geometry" />
        </mxCell>
        <mxCell id="GmjXvpa_BvCfjPu0cRvT-165" style="edgeStyle=orthogonalEdgeStyle;shape=connector;rounded=1;sketch=1;jiggle=2;curveFitting=1;jumpStyle=none;orthogonalLoop=1;jettySize=auto;html=1;exitX=0.5;exitY=0;exitDx=0;exitDy=0;exitPerimeter=0;shadow=1;labelBackgroundColor=default;strokeColor=default;fontFamily=Helvetica;fontSize=11;fontColor=default;endArrow=classic;startSize=10;endSize=11;" edge="1" parent="1" source="GmjXvpa_BvCfjPu0cRvT-168" target="GmjXvpa_BvCfjPu0cRvT-158">
          <mxGeometry relative="1" as="geometry">
            <Array as="points">
              <mxPoint x="1050.17" y="-1195" />
              <mxPoint x="770.1700000000001" y="-1195" />
            </Array>
          </mxGeometry>
        </mxCell>
        <mxCell id="GmjXvpa_BvCfjPu0cRvT-166" style="edgeStyle=orthogonalEdgeStyle;shape=connector;rounded=1;sketch=1;jiggle=2;curveFitting=1;jumpStyle=none;orthogonalLoop=1;jettySize=auto;html=1;shadow=1;labelBackgroundColor=default;strokeColor=default;fontFamily=Helvetica;fontSize=11;fontColor=default;endArrow=classic;startSize=10;endSize=11;" edge="1" parent="1" source="GmjXvpa_BvCfjPu0cRvT-168" target="GmjXvpa_BvCfjPu0cRvT-159">
          <mxGeometry relative="1" as="geometry">
            <Array as="points">
              <mxPoint x="1050.17" y="-1192" />
              <mxPoint x="546.1700000000001" y="-1192" />
            </Array>
          </mxGeometry>
        </mxCell>
        <mxCell id="GmjXvpa_BvCfjPu0cRvT-167" style="edgeStyle=orthogonalEdgeStyle;shape=connector;rounded=1;sketch=1;jiggle=2;curveFitting=1;jumpStyle=none;orthogonalLoop=1;jettySize=auto;html=1;shadow=1;labelBackgroundColor=default;strokeColor=default;fontFamily=Helvetica;fontSize=11;fontColor=default;endArrow=classic;startSize=10;endSize=11;" edge="1" parent="1" source="GmjXvpa_BvCfjPu0cRvT-168">
          <mxGeometry relative="1" as="geometry">
            <mxPoint x="981.6700000000001" y="-1197" as="sourcePoint" />
            <mxPoint x="340.17333333333397" y="-1442" as="targetPoint" />
            <Array as="points">
              <mxPoint x="1050.17" y="-1192" />
              <mxPoint x="341.1700000000001" y="-1192" />
            </Array>
          </mxGeometry>
        </mxCell>
        <mxCell id="GmjXvpa_BvCfjPu0cRvT-168" value="" style="shape=mxgraph.cisco.switches.workgroup_switch;html=1;pointerEvents=1;dashed=0;fillColor=#036897;strokeColor=#ffffff;strokeWidth=2;verticalLabelPosition=bottom;verticalAlign=top;align=center;outlineConnect=0;fontColor=#EEEEEE;rounded=1;aspect=fixed;" vertex="1" parent="1">
          <mxGeometry x="969" y="-1150" width="161.6" height="80" as="geometry" />
        </mxCell>
        <mxCell id="GmjXvpa_BvCfjPu0cRvT-171" value="&lt;h1 style=&quot;line-height: 190%;&quot;&gt;&lt;font size=&quot;1&quot; face=&quot;Times New Roman&quot;&gt;&lt;span style=&quot;font-weight: 400; font-size: 57px;&quot;&gt;2º Andar&lt;/span&gt;&lt;/font&gt;&lt;/h1&gt;" style="whiteSpace=wrap;html=1;strokeColor=#3A5431;fontFamily=Helvetica;fontSize=12;fontColor=#ffffff;fillColor=#6d8764;align=center;rounded=1;" vertex="1" parent="1">
          <mxGeometry x="1426" y="-1724.5" width="282.5" height="103" as="geometry" />
        </mxCell>
        <mxCell id="GmjXvpa_BvCfjPu0cRvT-172" value="&lt;h1 style=&quot;line-height: 190%;&quot;&gt;&lt;font size=&quot;1&quot; face=&quot;Times New Roman&quot;&gt;&lt;span style=&quot;font-weight: 400; font-size: 57px;&quot;&gt;2º Andar&lt;/span&gt;&lt;/font&gt;&lt;/h1&gt;" style="whiteSpace=wrap;html=1;strokeColor=#3A5431;fontFamily=Helvetica;fontSize=12;fontColor=#ffffff;fillColor=#6d8764;align=center;rounded=1;" vertex="1" parent="1">
          <mxGeometry x="116" y="-1740" width="282.5" height="103" as="geometry" />
        </mxCell>
        <mxCell id="GmjXvpa_BvCfjPu0cRvT-173" value="&lt;h1 style=&quot;line-height: 190%;&quot;&gt;&lt;font size=&quot;1&quot; face=&quot;Times New Roman&quot;&gt;&lt;span style=&quot;font-weight: 400; font-size: 57px;&quot;&gt;2º Andar&lt;/span&gt;&lt;/font&gt;&lt;/h1&gt;" style="whiteSpace=wrap;html=1;strokeColor=#3A5431;fontFamily=Helvetica;fontSize=12;fontColor=#ffffff;fillColor=#6d8764;align=center;rounded=1;" vertex="1" parent="1">
          <mxGeometry x="-1200" y="-1727.5" width="282.5" height="103" as="geometry" />
        </mxCell>
      </root>
    </mxGraphModel>
  </diagram>
</mxfile>
